<?xml version="1.0" encoding="UTF-8"?>
<svg id="Layer_1" xmlns="http://www.w3.org/2000/svg" version="1.1" xmlns:xlink="http://www.w3.org/1999/xlink" viewBox="0 0 1080 286.48">
  <!-- Generator: Adobe Illustrator 30.2.1, SVG Export Plug-In . SVG Version: 2.1.1 Build 1)  -->
  <defs>
    <style>
      .st0 {
        fill: #fff;
      }

      .st1 {
        fill: url(#linear-gradient);
      }
    </style>
    <linearGradient id="linear-gradient" x1="58.82" y1="173.81" x2="237.91" y2="108.63" gradientUnits="userSpaceOnUse">
      <stop offset="0" stop-color="#faa71d"/>
      <stop offset=".99" stop-color="#f37126"/>
    </linearGradient>
  </defs>
  <path class="st1" d="M219.75,175.24v40.66h-84.69c-45.37,0-87.04-36.97-87.04-82.67s41.67-82.34,87.04-82.34h80.99v40.66l-36.3,68.56h-45.7l40.33-68.56h-39.32c-22.85,0-41.67,18.82-41.67,41.67s18.82,42.01,41.67,42.01h84.69Z"/>
  <path class="st0" d="M235.2,150.87v-34.95h81.66v34.95h-81.66Z"/>
  <path class="st0" d="M413.31,50.89c25.2,0,49.4,6.72,66.2,20.5l17.81-20.5h44.02c45.7,0,80.32,22.85,80.32,68.22v96.79h-45.37v-96.79c0-22.85-11.76-27.56-34.95-27.56h-45.37c4.03,8.07,6.38,17.14,6.38,27.56v96.79h-45.37v-96.79c0-22.85-20.5-27.56-43.69-27.56h-30.25v124.34h-45.37V50.89h75.62Z"/>
  <path class="st0" d="M723.48,50.89h88.05v165.01h-45.37v-124.34h-42.68c-22.85,0-41.67,18.82-41.67,41.67s18.82,42.01,41.67,42.01h26.55v40.66h-26.55c-45.37,0-87.04-36.97-87.04-82.67s41.67-82.34,87.04-82.34Z"/>
  <path class="st0" d="M836.72,3.51h45.37v32.6h-45.37V3.51ZM836.72,50.89h45.37v165.01h-45.37V50.89Z"/>
  <path class="st0" d="M1031.98,169.52c0,22.18-16.47,46.38-51.75,46.38h-77.97v-40.66h77.97c3.36,0,6.05-.34,6.05-2.69,0-4.7-20.16-13.78-29.91-19.16-24.87-14.11-54.11-28.23-54.11-56.12,0-22.52,16.13-46.38,51.75-46.38h72.59v40.66h-72.59c-3.36,0-6.05,0-6.05,2.35,0,4.7,19.83,14.11,29.58,19.49,25.2,13.78,54.44,27.89,54.44,56.12Z"/>
  <g>
    <path class="st0" d="M339.9,261.69v6.55h12.64v3.14h-12.64v6.98h13.99v3.14h-17.53v-22.95h17.53v3.14h-13.99Z"/>
    <path class="st0" d="M354.97,282.58h-19.7v-25.11h19.7v5.3h-13.99v4.38h12.64v5.31h-12.64v4.82h13.99v5.3ZM337.44,280.41h15.37v-.97h-13.99v-9.15h12.64v-.98h-12.64v-8.71h13.99v-.97h-15.37v20.78Z"/>
  </g>
  <g>
    <path class="st0" d="M398.32,258.55l-10.24,22.95h-3.89l-10.24-22.95h3.89l8.3,18.6,8.3-18.6h3.89Z"/>
    <path class="st0" d="M388.78,282.58h-5.29l-11.21-25.11h6.26l7.6,17.03,7.6-17.03h6.26l-11.21,25.11ZM384.89,280.41h2.48l9.28-20.78h-1.52l-9,20.18-9-20.18h-1.52l9.28,20.78Z"/>
  </g>
  <g>
    <path class="st0" d="M422.72,261.69v6.55h12.64v3.14h-12.64v6.98h13.99v3.14h-17.53v-22.95h17.53v3.14h-13.99Z"/>
    <path class="st0" d="M437.8,282.58h-19.7v-25.11h19.7v5.3h-13.99v4.38h12.64v5.31h-12.64v4.82h13.99v5.3ZM420.26,280.41h15.37v-.97h-13.99v-9.15h12.64v-.98h-12.64v-8.71h13.99v-.97h-15.37v20.78Z"/>
  </g>
  <g>
    <path class="st0" d="M458.89,258.55h3.51l13.71,17.4v-17.4h3.51v22.95h-3.51l-13.71-17.4v17.4h-3.51v-22.95Z"/>
    <path class="st0" d="M480.7,282.58h-5.11l-12.11-15.36v15.36h-5.67v-25.11h5.11l12.11,15.36v-15.36h5.67v25.11ZM476.64,280.41h1.9v-20.78h-1.34v19.44l-15.32-19.44h-1.9v20.78h1.34v-19.44l15.32,19.44Z"/>
  </g>
  <g>
    <path class="st0" d="M509.23,261.69h-7.81v-3.14h19.16v3.14h-7.85v19.81h-3.51v-19.81Z"/>
    <path class="st0" d="M513.82,282.58h-5.67v-19.81h-7.81v-5.3h21.33v5.3h-7.85v19.81ZM510.31,280.41h1.34v-19.81h7.85v-.97h-17v.97h7.81v19.81Z"/>
  </g>
  <g>
    <path class="st0" d="M539.6,270.01c0-6.45,5.69-11.86,12.39-11.86s12.33,5.41,12.33,11.86-5.62,11.89-12.33,11.89-12.39-5.44-12.39-11.89ZM560.74,270.01c0-4.74-3.99-8.75-8.75-8.75s-8.78,4.01-8.78,8.75,4.03,8.78,8.78,8.78,8.75-4.01,8.75-8.78Z"/>
    <path class="st0" d="M551.99,282.98c-7.3,0-13.48-5.94-13.48-12.97s6.17-12.94,13.48-12.94,13.41,5.93,13.41,12.94-6.14,12.97-13.41,12.97ZM551.99,259.23c-6.13,0-11.31,4.93-11.31,10.78s5.18,10.81,11.31,10.81,11.24-4.95,11.24-10.81-5.15-10.78-11.24-10.78ZM551.99,279.87c-5.35,0-9.87-4.52-9.87-9.87s4.52-9.83,9.87-9.83,9.83,4.5,9.83,9.83-4.5,9.87-9.83,9.87ZM551.99,262.34c-4.18,0-7.7,3.51-7.7,7.67s3.53,7.7,7.7,7.7,7.67-3.53,7.67-7.7-3.51-7.67-7.67-7.67Z"/>
  </g>
  <g>
    <path class="st0" d="M584.69,278.19l2.12-2.5c2.12,1.94,4.62,3.21,7.85,3.21s5-1.67,5-3.51c0-2.17-1.98-3.01-5.97-3.88-4.86-1.1-8.09-2.5-8.09-6.65,0-3.84,3.47-6.75,8.26-6.75,3.68,0,6.42,1.3,8.71,3.24l-2.01,2.54c-2.01-1.77-4.41-2.81-6.84-2.81-2.67,0-4.55,1.64-4.55,3.47,0,2.14,2.05,2.87,5.97,3.77,4.75,1.07,8.05,2.61,8.05,6.71,0,3.87-3.05,6.81-8.68,6.81-3.99,0-7.29-1.34-9.83-3.67Z"/>
    <path class="st0" d="M594.52,282.95c-4.16,0-7.71-1.33-10.56-3.96l-.76-.7,3.51-4.15.83.76c2.18,1.99,4.44,2.92,7.12,2.92s3.92-1.22,3.92-2.42c0-1.13-.79-1.88-5.12-2.82-4.33-.98-8.94-2.46-8.94-7.7,0-4.46,4.02-7.83,9.34-7.83,3.55,0,6.63,1.14,9.41,3.49l.8.68-3.37,4.26-.86-.75c-1.86-1.64-4.03-2.54-6.12-2.54s-3.46,1.24-3.46,2.39,1.15,1.81,5.13,2.72c4.62,1.04,8.89,2.7,8.89,7.77,0,4.8-3.83,7.9-9.76,7.9ZM586.21,278.07c2.3,1.8,5.09,2.72,8.3,2.72,4.69,0,7.6-2.2,7.6-5.73,0-2.94-1.95-4.48-7.21-5.66-3.35-.77-6.82-1.56-6.82-4.83,0-2.55,2.47-4.56,5.63-4.56,2.28,0,4.62.83,6.67,2.36l.66-.83c-2.17-1.59-4.48-2.33-7.19-2.33-4.16,0-7.18,2.38-7.18,5.67,0,2.95,1.83,4.36,7.24,5.59,3.72.81,6.82,1.74,6.82,4.93,0,2.21-1.9,4.59-6.08,4.59-2.85,0-5.39-.91-7.72-2.76l-.72.85Z"/>
  </g>
  <g>
    <path class="st0" d="M655.68,261.69v6.55h12.64v3.14h-12.64v6.98h13.99v3.14h-17.53v-22.95h17.53v3.14h-13.99Z"/>
    <path class="st0" d="M670.76,282.58h-19.7v-25.11h19.7v5.3h-13.99v4.38h12.64v5.31h-12.64v4.82h13.99v5.3ZM653.22,280.41h15.37v-.97h-13.99v-9.15h12.64v-.98h-12.64v-8.71h13.99v-.97h-15.37v20.78Z"/>
  </g>
  <g>
    <path class="st0" d="M690.15,278.19l2.12-2.5c2.12,1.94,4.62,3.21,7.85,3.21s5-1.67,5-3.51c0-2.17-1.98-3.01-5.97-3.88-4.86-1.1-8.09-2.5-8.09-6.65,0-3.84,3.47-6.75,8.26-6.75,3.68,0,6.42,1.3,8.71,3.24l-2.01,2.54c-2.01-1.77-4.41-2.81-6.84-2.81-2.67,0-4.55,1.64-4.55,3.47,0,2.14,2.05,2.87,5.97,3.77,4.75,1.07,8.05,2.61,8.05,6.71,0,3.87-3.05,6.81-8.68,6.81-3.99,0-7.29-1.34-9.83-3.67Z"/>
    <path class="st0" d="M699.98,282.95c-4.16,0-7.71-1.33-10.56-3.96l-.76-.7,3.51-4.15.83.76c2.18,1.99,4.44,2.92,7.12,2.92s3.92-1.22,3.92-2.42c0-1.13-.79-1.88-5.12-2.82-4.33-.98-8.94-2.46-8.94-7.7,0-4.46,4.02-7.83,9.35-7.83,3.55,0,6.63,1.14,9.41,3.49l.8.68-3.37,4.26-.86-.75c-1.86-1.64-4.04-2.54-6.13-2.54s-3.46,1.24-3.46,2.39,1.15,1.81,5.13,2.72c4.62,1.04,8.89,2.7,8.89,7.77,0,4.8-3.83,7.9-9.76,7.9ZM691.67,278.07c2.3,1.8,5.08,2.72,8.3,2.72,4.69,0,7.6-2.2,7.6-5.73,0-2.94-1.95-4.48-7.21-5.66-3.35-.77-6.82-1.56-6.82-4.83,0-2.55,2.47-4.56,5.63-4.56,2.28,0,4.61.83,6.67,2.36l.66-.83c-2.17-1.59-4.48-2.33-7.19-2.33-4.16,0-7.18,2.38-7.18,5.67,0,2.95,1.83,4.36,7.25,5.59,3.72.81,6.82,1.74,6.82,4.93,0,2.21-1.9,4.59-6.08,4.59-2.85,0-5.39-.91-7.72-2.76l-.72.85Z"/>
  </g>
  <g>
    <path class="st0" d="M730.31,258.55h10.04c5.03,0,8.85,3.11,8.85,7.48s-3.82,7.48-8.85,7.48h-6.53v7.98h-3.51v-22.95ZM739.86,270.37c3.44,0,5.76-1.63,5.76-4.34s-2.33-4.34-5.76-4.34h-6.04v8.68h6.04Z"/>
    <path class="st0" d="M734.9,282.58h-5.67v-25.11h11.12c5.66,0,9.94,3.68,9.94,8.56s-4.27,8.56-9.94,8.56h-5.45v7.98ZM731.39,280.41h1.34v-7.98h7.61c4.5,0,7.77-2.69,7.77-6.4s-3.27-6.4-7.77-6.4h-8.95v20.78ZM739.86,271.45h-7.12v-10.85h7.12c4.09,0,6.84,2.18,6.84,5.43s-2.75,5.42-6.84,5.42ZM734.9,269.29h4.96c2.26,0,4.68-.86,4.68-3.26s-2.42-3.26-4.68-3.26h-4.96v6.52Z"/>
  </g>
  <g>
    <path class="st0" d="M769.26,270.01c0-6.45,5.69-11.86,12.39-11.86s12.33,5.41,12.33,11.86-5.62,11.89-12.33,11.89-12.39-5.44-12.39-11.89ZM790.4,270.01c0-4.74-3.99-8.75-8.75-8.75s-8.78,4.01-8.78,8.75,4.03,8.78,8.78,8.78,8.75-4.01,8.75-8.78Z"/>
    <path class="st0" d="M781.66,282.98c-7.3,0-13.48-5.94-13.48-12.97s6.17-12.94,13.48-12.94,13.41,5.93,13.41,12.94-6.14,12.97-13.41,12.97ZM781.66,259.23c-6.13,0-11.31,4.93-11.31,10.78s5.18,10.81,11.31,10.81,11.24-4.95,11.24-10.81-5.15-10.78-11.24-10.78ZM781.66,279.87c-5.35,0-9.87-4.52-9.87-9.87s4.52-9.83,9.87-9.83,9.83,4.5,9.83,9.83-4.5,9.87-9.83,9.87ZM781.66,262.34c-4.18,0-7.7,3.51-7.7,7.67s3.53,7.7,7.7,7.7,7.67-3.53,7.67-7.7-3.51-7.67-7.67-7.67Z"/>
  </g>
  <g>
    <path class="st0" d="M828.42,273.18l6.08,8.32h-4.03l-5.83-7.98h-5.49v7.98h-3.51v-22.95h10.04c5.03,0,8.85,3.11,8.85,7.48,0,3.54-2.5,6.24-6.11,7.15ZM819.15,270.37h6.04c3.44,0,5.76-1.63,5.76-4.34s-2.33-4.34-5.76-4.34h-6.04v8.68Z"/>
    <path class="st0" d="M836.62,282.58h-6.71l-5.83-7.98h-3.85v7.98h-5.67v-25.11h11.12c5.66,0,9.93,3.68,9.93,8.56,0,3.44-2.09,6.34-5.44,7.71l6.45,8.83ZM831.01,280.41h1.35l-5.77-7.89,1.56-.39c3.26-.82,5.29-3.15,5.29-6.1,0-3.71-3.27-6.4-7.77-6.4h-8.95v20.78h1.34v-7.98h7.12l5.83,7.98ZM825.19,271.45h-7.12v-10.85h7.12c4.09,0,6.84,2.18,6.84,5.43s-2.75,5.42-6.84,5.42ZM820.23,269.29h4.96c2.26,0,4.68-.86,4.68-3.26s-2.42-3.26-4.68-3.26h-4.96v6.52Z"/>
  </g>
  <g>
    <path class="st0" d="M862.5,261.69h-7.81v-3.14h19.17v3.14h-7.85v19.81h-3.51v-19.81Z"/>
    <path class="st0" d="M867.09,282.58h-5.67v-19.81h-7.81v-5.3h21.33v5.3h-7.85v19.81ZM863.58,280.41h1.34v-19.81h7.85v-.97h-17v.97h7.81v19.81Z"/>
  </g>
  <g>
    <path class="st0" d="M895.24,258.55h3.51v22.95h-3.51v-22.95Z"/>
    <path class="st0" d="M899.83,282.58h-5.67v-25.11h5.67v25.11ZM896.32,280.41h1.34v-20.78h-1.34v20.78Z"/>
  </g>
  <g>
    <path class="st0" d="M944.01,258.55l-10.24,22.95h-3.89l-10.24-22.95h3.89l8.3,18.6,8.3-18.6h3.89Z"/>
    <path class="st0" d="M934.47,282.58h-5.29l-11.21-25.11h6.26l7.6,17.03,7.6-17.03h6.26l-11.21,25.11ZM930.58,280.41h2.49l9.27-20.78h-1.52l-9,20.18-9-20.18h-1.52l9.28,20.78Z"/>
  </g>
  <g>
    <path class="st0" d="M963.93,270.01c0-6.45,5.69-11.86,12.39-11.86s12.33,5.41,12.33,11.86-5.62,11.89-12.33,11.89-12.39-5.44-12.39-11.89ZM985.08,270.01c0-4.74-3.99-8.75-8.75-8.75s-8.78,4.01-8.78,8.75,4.03,8.78,8.78,8.78,8.75-4.01,8.75-8.78Z"/>
    <path class="st0" d="M976.33,282.98c-7.3,0-13.48-5.94-13.48-12.97s6.17-12.94,13.48-12.94,13.41,5.93,13.41,12.94-6.14,12.97-13.41,12.97ZM976.33,259.23c-6.13,0-11.31,4.93-11.31,10.78s5.18,10.81,11.31,10.81,11.24-4.95,11.24-10.81-5.15-10.78-11.24-10.78ZM976.33,279.87c-5.35,0-9.87-4.52-9.87-9.87s4.52-9.83,9.87-9.83,9.83,4.5,9.83,9.83-4.5,9.87-9.83,9.87ZM976.33,262.34c-4.18,0-7.7,3.51-7.7,7.67s3.53,7.7,7.7,7.7,7.67-3.53,7.67-7.7-3.51-7.67-7.67-7.67Z"/>
  </g>
  <g>
    <path class="st0" d="M1009.02,278.19l2.12-2.5c2.12,1.94,4.62,3.21,7.85,3.21s5-1.67,5-3.51c0-2.17-1.98-3.01-5.97-3.88-4.86-1.1-8.09-2.5-8.09-6.65,0-3.84,3.47-6.75,8.26-6.75,3.68,0,6.42,1.3,8.71,3.24l-2.01,2.54c-2.01-1.77-4.41-2.81-6.84-2.81-2.67,0-4.55,1.64-4.55,3.47,0,2.14,2.05,2.87,5.97,3.77,4.75,1.07,8.05,2.61,8.05,6.71,0,3.87-3.05,6.81-8.68,6.81-3.99,0-7.29-1.34-9.83-3.67Z"/>
    <path class="st0" d="M1018.85,282.95c-4.16,0-7.71-1.33-10.56-3.96l-.76-.7,3.51-4.15.83.76c2.18,1.99,4.44,2.92,7.12,2.92s3.92-1.22,3.92-2.42c0-1.13-.79-1.88-5.12-2.82-4.33-.98-8.94-2.46-8.94-7.7,0-4.46,4.02-7.83,9.34-7.83,3.55,0,6.63,1.14,9.41,3.49l.8.68-3.37,4.26-.86-.75c-1.86-1.64-4.03-2.54-6.12-2.54s-3.46,1.24-3.46,2.39,1.15,1.81,5.13,2.72c4.62,1.04,8.89,2.7,8.89,7.77,0,4.8-3.83,7.9-9.76,7.9ZM1010.55,278.07c2.3,1.8,5.09,2.72,8.3,2.72,4.69,0,7.6-2.2,7.6-5.73,0-2.94-1.95-4.48-7.21-5.66-3.35-.77-6.82-1.56-6.82-4.83,0-2.55,2.47-4.56,5.63-4.56,2.28,0,4.62.83,6.67,2.36l.66-.83c-2.17-1.59-4.48-2.33-7.19-2.33-4.16,0-7.18,2.38-7.18,5.67,0,2.95,1.83,4.36,7.24,5.59,3.72.81,6.82,1.74,6.82,4.93,0,2.21-1.9,4.59-6.08,4.59-2.85,0-5.39-.9-7.72-2.76l-.72.85Z"/>
  </g>
</svg>